<svg width="22" height="20" viewBox="0 0 22 20" fill="none" xmlns="http://www.w3.org/2000/svg">
<mask id="path-1-inside-1_72_1559" fill="white">
<path fill-rule="evenodd" clip-rule="evenodd" d="M7.20711 0.959549C7.39464 0.772013 7.649 0.666656 7.91421 0.666656H14.0858C14.351 0.666656 14.6054 0.772013 14.7929 0.95955L16.8333 2.99999H18.5C20.1569 2.99999 21.5 4.34314 21.5 5.99999V16.3333C21.5 17.9902 20.1569 19.3333 18.5 19.3333H3.5C1.84315 19.3333 0.5 17.9902 0.5 16.3333V5.99999C0.5 4.34313 1.84315 2.99999 3.5 2.99999H5.16667L7.20711 0.959549ZM7.33333 11.1667C7.33333 9.14165 8.97496 7.50003 11 7.50003C13.025 7.50003 14.6667 9.14165 14.6667 11.1667C14.6667 13.1917 13.025 14.8334 11 14.8334C8.97496 14.8334 7.33333 13.1917 7.33333 11.1667ZM11 5.50003C7.87039 5.50003 5.33333 8.03708 5.33333 11.1667C5.33333 14.2963 7.87039 16.8334 11 16.8334C14.1296 16.8334 16.6667 14.2963 16.6667 11.1667C16.6667 8.03708 14.1296 5.50003 11 5.50003Z"/>
</mask>
<path fill-rule="evenodd" clip-rule="evenodd" d="M7.20711 0.959549C7.39464 0.772013 7.649 0.666656 7.91421 0.666656H14.0858C14.351 0.666656 14.6054 0.772013 14.7929 0.95955L16.8333 2.99999H18.5C20.1569 2.99999 21.5 4.34314 21.5 5.99999V16.3333C21.5 17.9902 20.1569 19.3333 18.5 19.3333H3.5C1.84315 19.3333 0.5 17.9902 0.5 16.3333V5.99999C0.5 4.34313 1.84315 2.99999 3.5 2.99999H5.16667L7.20711 0.959549ZM7.33333 11.1667C7.33333 9.14165 8.97496 7.50003 11 7.50003C13.025 7.50003 14.6667 9.14165 14.6667 11.1667C14.6667 13.1917 13.025 14.8334 11 14.8334C8.97496 14.8334 7.33333 13.1917 7.33333 11.1667ZM11 5.50003C7.87039 5.50003 5.33333 8.03708 5.33333 11.1667C5.33333 14.2963 7.87039 16.8334 11 16.8334C14.1296 16.8334 16.6667 14.2963 16.6667 11.1667C16.6667 8.03708 14.1296 5.50003 11 5.50003Z" fill="url(#paint0_linear_72_1559)"/>
<path fill-rule="evenodd" clip-rule="evenodd" d="M7.20711 0.959549C7.39464 0.772013 7.649 0.666656 7.91421 0.666656H14.0858C14.351 0.666656 14.6054 0.772013 14.7929 0.95955L16.8333 2.99999H18.5C20.1569 2.99999 21.5 4.34314 21.5 5.99999V16.3333C21.5 17.9902 20.1569 19.3333 18.5 19.3333H3.5C1.84315 19.3333 0.5 17.9902 0.5 16.3333V5.99999C0.5 4.34313 1.84315 2.99999 3.5 2.99999H5.16667L7.20711 0.959549ZM7.33333 11.1667C7.33333 9.14165 8.97496 7.50003 11 7.50003C13.025 7.50003 14.6667 9.14165 14.6667 11.1667C14.6667 13.1917 13.025 14.8334 11 14.8334C8.97496 14.8334 7.33333 13.1917 7.33333 11.1667ZM11 5.50003C7.87039 5.50003 5.33333 8.03708 5.33333 11.1667C5.33333 14.2963 7.87039 16.8334 11 16.8334C14.1296 16.8334 16.6667 14.2963 16.6667 11.1667C16.6667 8.03708 14.1296 5.50003 11 5.50003Z" fill="white"/>
<path d="M7.20711 0.959549L6.85355 0.605996V0.605996L7.20711 0.959549ZM14.7929 0.95955L14.4393 1.3131V1.3131L14.7929 0.95955ZM16.8333 2.99999L16.4798 3.35354L16.6262 3.49999H16.8333V2.99999ZM5.16667 2.99999V3.49999H5.37377L5.52022 3.35354L5.16667 2.99999ZM7.91421 0.166656C7.51639 0.166656 7.13486 0.324691 6.85355 0.605996L7.56066 1.3131C7.65443 1.21933 7.7816 1.16666 7.91421 1.16666V0.166656ZM14.0858 0.166656H7.91421V1.16666H14.0858V0.166656ZM15.1464 0.605996C14.8651 0.324692 14.4836 0.166656 14.0858 0.166656V1.16666C14.2184 1.16666 14.3456 1.21934 14.4393 1.3131L15.1464 0.605996ZM17.1869 2.64644L15.1464 0.605996L14.4393 1.3131L16.4798 3.35354L17.1869 2.64644ZM18.5 2.49999H16.8333V3.49999H18.5V2.49999ZM22 5.99999C22 4.06699 20.433 2.49999 18.5 2.49999V3.49999C19.8807 3.49999 21 4.61928 21 5.99999H22ZM22 16.3333V5.99999H21V16.3333H22ZM18.5 19.8333C20.433 19.8333 22 18.2663 22 16.3333H21C21 17.714 19.8807 18.8333 18.5 18.8333V19.8333ZM3.5 19.8333H18.5V18.8333H3.5V19.8333ZM0 16.3333C0 18.2663 1.567 19.8333 3.5 19.8333V18.8333C2.11929 18.8333 1 17.714 1 16.3333H0ZM0 5.99999V16.3333H1V5.99999H0ZM3.5 2.49999C1.567 2.49999 0 4.06699 0 5.99999H1C1 4.61928 2.11929 3.49999 3.5 3.49999V2.49999ZM5.16667 2.49999H3.5V3.49999H5.16667V2.49999ZM6.85355 0.605996L4.81311 2.64644L5.52022 3.35354L7.56066 1.3131L6.85355 0.605996ZM11 7.00003C8.69881 7.00003 6.83333 8.86551 6.83333 11.1667H7.83333C7.83333 9.4178 9.2511 8.00003 11 8.00003V7.00003ZM15.1667 11.1667C15.1667 8.86551 13.3012 7.00003 11 7.00003V8.00003C12.7489 8.00003 14.1667 9.4178 14.1667 11.1667H15.1667ZM11 15.3334C13.3012 15.3334 15.1667 13.4679 15.1667 11.1667H14.1667C14.1667 12.9156 12.7489 14.3334 11 14.3334V15.3334ZM6.83333 11.1667C6.83333 13.4679 8.69881 15.3334 11 15.3334V14.3334C9.2511 14.3334 7.83333 12.9156 7.83333 11.1667H6.83333ZM5.83333 11.1667C5.83333 8.31323 8.14653 6.00003 11 6.00003V5.00003C7.59424 5.00003 4.83333 7.76094 4.83333 11.1667H5.83333ZM11 16.3334C8.14653 16.3334 5.83333 14.0202 5.83333 11.1667H4.83333C4.83333 14.5725 7.59424 17.3334 11 17.3334V16.3334ZM16.1667 11.1667C16.1667 14.0202 13.8535 16.3334 11 16.3334V17.3334C14.4058 17.3334 17.1667 14.5725 17.1667 11.1667H16.1667ZM11 6.00003C13.8535 6.00003 16.1667 8.31323 16.1667 11.1667H17.1667C17.1667 7.76094 14.4058 5.00003 11 5.00003V6.00003Z" fill="url(#paint1_linear_72_1559)" mask="url(#path-1-inside-1_72_1559)"/>
<path d="M7.20711 0.959549L6.85355 0.605996V0.605996L7.20711 0.959549ZM14.7929 0.95955L14.4393 1.3131V1.3131L14.7929 0.95955ZM16.8333 2.99999L16.4798 3.35354L16.6262 3.49999H16.8333V2.99999ZM5.16667 2.99999V3.49999H5.37377L5.52022 3.35354L5.16667 2.99999ZM7.91421 0.166656C7.51639 0.166656 7.13486 0.324691 6.85355 0.605996L7.56066 1.3131C7.65443 1.21933 7.7816 1.16666 7.91421 1.16666V0.166656ZM14.0858 0.166656H7.91421V1.16666H14.0858V0.166656ZM15.1464 0.605996C14.8651 0.324692 14.4836 0.166656 14.0858 0.166656V1.16666C14.2184 1.16666 14.3456 1.21934 14.4393 1.3131L15.1464 0.605996ZM17.1869 2.64644L15.1464 0.605996L14.4393 1.3131L16.4798 3.35354L17.1869 2.64644ZM18.5 2.49999H16.8333V3.49999H18.5V2.49999ZM22 5.99999C22 4.06699 20.433 2.49999 18.5 2.49999V3.49999C19.8807 3.49999 21 4.61928 21 5.99999H22ZM22 16.3333V5.99999H21V16.3333H22ZM18.5 19.8333C20.433 19.8333 22 18.2663 22 16.3333H21C21 17.714 19.8807 18.8333 18.5 18.8333V19.8333ZM3.5 19.8333H18.5V18.8333H3.5V19.8333ZM0 16.3333C0 18.2663 1.567 19.8333 3.5 19.8333V18.8333C2.11929 18.8333 1 17.714 1 16.3333H0ZM0 5.99999V16.3333H1V5.99999H0ZM3.5 2.49999C1.567 2.49999 0 4.06699 0 5.99999H1C1 4.61928 2.11929 3.49999 3.5 3.49999V2.49999ZM5.16667 2.49999H3.5V3.49999H5.16667V2.49999ZM6.85355 0.605996L4.81311 2.64644L5.52022 3.35354L7.56066 1.3131L6.85355 0.605996ZM11 7.00003C8.69881 7.00003 6.83333 8.86551 6.83333 11.1667H7.83333C7.83333 9.4178 9.2511 8.00003 11 8.00003V7.00003ZM15.1667 11.1667C15.1667 8.86551 13.3012 7.00003 11 7.00003V8.00003C12.7489 8.00003 14.1667 9.4178 14.1667 11.1667H15.1667ZM11 15.3334C13.3012 15.3334 15.1667 13.4679 15.1667 11.1667H14.1667C14.1667 12.9156 12.7489 14.3334 11 14.3334V15.3334ZM6.83333 11.1667C6.83333 13.4679 8.69881 15.3334 11 15.3334V14.3334C9.2511 14.3334 7.83333 12.9156 7.83333 11.1667H6.83333ZM5.83333 11.1667C5.83333 8.31323 8.14653 6.00003 11 6.00003V5.00003C7.59424 5.00003 4.83333 7.76094 4.83333 11.1667H5.83333ZM11 16.3334C8.14653 16.3334 5.83333 14.0202 5.83333 11.1667H4.83333C4.83333 14.5725 7.59424 17.3334 11 17.3334V16.3334ZM16.1667 11.1667C16.1667 14.0202 13.8535 16.3334 11 16.3334V17.3334C14.4058 17.3334 17.1667 14.5725 17.1667 11.1667H16.1667ZM11 6.00003C13.8535 6.00003 16.1667 8.31323 16.1667 11.1667H17.1667C17.1667 7.76094 14.4058 5.00003 11 5.00003V6.00003Z" fill="url(#paint2_linear_72_1559)" mask="url(#path-1-inside-1_72_1559)"/>
<defs>
<linearGradient id="paint0_linear_72_1559" x1="11" y1="0.666656" x2="11" y2="19.3333" gradientUnits="userSpaceOnUse">
<stop stop-color="#128C7E"/>
<stop offset="1" stop-color="#25D366"/>
</linearGradient>
<linearGradient id="paint1_linear_72_1559" x1="0.602748" y1="0.666656" x2="0.602748" y2="19.1507" gradientUnits="userSpaceOnUse">
<stop stop-opacity="0"/>
<stop offset="0.8" stop-opacity="0.02"/>
<stop offset="1" stop-opacity="0.04"/>
</linearGradient>
<linearGradient id="paint2_linear_72_1559" x1="0.5" y1="0.666656" x2="0.5" y2="19.3333" gradientUnits="userSpaceOnUse">
<stop stop-color="white" stop-opacity="0.12"/>
<stop offset="0.2" stop-color="white" stop-opacity="0.06"/>
<stop offset="1" stop-color="white" stop-opacity="0"/>
</linearGradient>
</defs>
</svg>
